<mxfile host="app.diagrams.net" modified="2021-05-31T09:37:49.314Z" agent="5.0 (Macintosh; Intel Mac OS X 10_15_7) AppleWebKit/537.36 (KHTML, like Gecko) Chrome/90.0.4430.212 Safari/537.36" etag="Np-1NUiG6HUUIhnyOOQe" version="14.6.13" type="github">
  <diagram id="3XhL15vrmqEnfThiVJNg" name="Page-1">
    <mxGraphModel dx="2173" dy="1815" grid="1" gridSize="10" guides="1" tooltips="1" connect="1" arrows="1" fold="1" page="1" pageScale="1" pageWidth="827" pageHeight="1169" math="0" shadow="0">
      <root>
        <mxCell id="0" />
        <mxCell id="1" parent="0" />
        <mxCell id="fnnSx_R63VMe2gS6l3el-1" value="" style="rounded=0;html=1;jettySize=auto;orthogonalLoop=1;fontSize=11;endArrow=block;endFill=0;endSize=8;strokeWidth=1;shadow=0;labelBackgroundColor=none;edgeStyle=orthogonalEdgeStyle;" edge="1" parent="1" source="fnnSx_R63VMe2gS6l3el-2" target="fnnSx_R63VMe2gS6l3el-5">
          <mxGeometry relative="1" as="geometry" />
        </mxCell>
        <mxCell id="fnnSx_R63VMe2gS6l3el-2" value="Single Ne (flase、ative) Alarm List" style="rounded=1;whiteSpace=wrap;html=1;fontSize=12;glass=0;strokeWidth=1;shadow=0;" vertex="1" parent="1">
          <mxGeometry x="160" y="80" width="190" height="40" as="geometry" />
        </mxCell>
        <mxCell id="fnnSx_R63VMe2gS6l3el-3" value="No" style="edgeStyle=orthogonalEdgeStyle;rounded=0;html=1;jettySize=auto;orthogonalLoop=1;fontSize=11;endArrow=block;endFill=0;endSize=8;strokeWidth=1;shadow=0;labelBackgroundColor=none;" edge="1" parent="1" source="fnnSx_R63VMe2gS6l3el-5" target="fnnSx_R63VMe2gS6l3el-7">
          <mxGeometry y="10" relative="1" as="geometry">
            <mxPoint as="offset" />
          </mxGeometry>
        </mxCell>
        <mxCell id="fnnSx_R63VMe2gS6l3el-4" value="Yes" style="edgeStyle=orthogonalEdgeStyle;rounded=0;orthogonalLoop=1;jettySize=auto;html=1;" edge="1" parent="1" source="fnnSx_R63VMe2gS6l3el-5">
          <mxGeometry relative="1" as="geometry">
            <mxPoint x="255.5" y="340" as="targetPoint" />
          </mxGeometry>
        </mxCell>
        <mxCell id="fnnSx_R63VMe2gS6l3el-5" value="is exist&lt;br&gt;otn_alarm_sublist&lt;br&gt;(neId、faultId)" style="rhombus;whiteSpace=wrap;html=1;shadow=0;fontFamily=Helvetica;fontSize=12;align=center;strokeWidth=1;spacing=6;spacingTop=-4;" vertex="1" parent="1">
          <mxGeometry x="180" y="161" width="151" height="111" as="geometry" />
        </mxCell>
        <mxCell id="fnnSx_R63VMe2gS6l3el-6" style="edgeStyle=orthogonalEdgeStyle;rounded=0;orthogonalLoop=1;jettySize=auto;html=1;entryX=0.5;entryY=0;entryDx=0;entryDy=0;" edge="1" parent="1" source="fnnSx_R63VMe2gS6l3el-7" target="fnnSx_R63VMe2gS6l3el-11">
          <mxGeometry relative="1" as="geometry" />
        </mxCell>
        <mxCell id="fnnSx_R63VMe2gS6l3el-7" value="insert&amp;nbsp; otn_alarm_sublist" style="rounded=1;whiteSpace=wrap;html=1;fontSize=12;glass=0;strokeWidth=1;shadow=0;" vertex="1" parent="1">
          <mxGeometry x="414" y="196.5" width="126" height="40" as="geometry" />
        </mxCell>
        <mxCell id="fnnSx_R63VMe2gS6l3el-8" style="edgeStyle=orthogonalEdgeStyle;rounded=0;orthogonalLoop=1;jettySize=auto;html=1;entryX=0;entryY=0.5;entryDx=0;entryDy=0;" edge="1" parent="1" source="fnnSx_R63VMe2gS6l3el-11" target="fnnSx_R63VMe2gS6l3el-20">
          <mxGeometry relative="1" as="geometry">
            <mxPoint x="675.5" y="330" as="targetPoint" />
          </mxGeometry>
        </mxCell>
        <mxCell id="fnnSx_R63VMe2gS6l3el-9" value="No" style="edgeLabel;html=1;align=center;verticalAlign=middle;resizable=0;points=[];" vertex="1" connectable="0" parent="fnnSx_R63VMe2gS6l3el-8">
          <mxGeometry x="-0.4138" relative="1" as="geometry">
            <mxPoint as="offset" />
          </mxGeometry>
        </mxCell>
        <mxCell id="fnnSx_R63VMe2gS6l3el-10" value="Yes" style="edgeStyle=orthogonalEdgeStyle;rounded=0;orthogonalLoop=1;jettySize=auto;html=1;" edge="1" parent="1" source="fnnSx_R63VMe2gS6l3el-11">
          <mxGeometry relative="1" as="geometry">
            <mxPoint x="477" y="490" as="targetPoint" />
          </mxGeometry>
        </mxCell>
        <mxCell id="fnnSx_R63VMe2gS6l3el-11" value="is exist&lt;br&gt;otn_alarm&lt;br&gt;(alarmMd5)" style="rhombus;whiteSpace=wrap;html=1;shadow=0;fontFamily=Helvetica;fontSize=12;align=center;strokeWidth=1;spacing=6;spacingTop=-4;" vertex="1" parent="1">
          <mxGeometry x="401.5" y="304.5" width="151" height="111" as="geometry" />
        </mxCell>
        <mxCell id="fnnSx_R63VMe2gS6l3el-12" style="edgeStyle=orthogonalEdgeStyle;rounded=0;orthogonalLoop=1;jettySize=auto;html=1;entryX=0.5;entryY=0;entryDx=0;entryDy=0;" edge="1" parent="1" source="fnnSx_R63VMe2gS6l3el-13" target="fnnSx_R63VMe2gS6l3el-16">
          <mxGeometry relative="1" as="geometry" />
        </mxCell>
        <mxCell id="fnnSx_R63VMe2gS6l3el-13" value="update&amp;nbsp; otn_alarm_sublist" style="rounded=1;whiteSpace=wrap;html=1;fontSize=12;glass=0;strokeWidth=1;shadow=0;" vertex="1" parent="1">
          <mxGeometry x="192" y="340" width="126" height="40" as="geometry" />
        </mxCell>
        <mxCell id="fnnSx_R63VMe2gS6l3el-14" style="edgeStyle=orthogonalEdgeStyle;rounded=0;orthogonalLoop=1;jettySize=auto;html=1;" edge="1" parent="1" source="fnnSx_R63VMe2gS6l3el-16">
          <mxGeometry relative="1" as="geometry">
            <mxPoint x="256" y="600" as="targetPoint" />
          </mxGeometry>
        </mxCell>
        <mxCell id="fnnSx_R63VMe2gS6l3el-15" value="Yes" style="edgeLabel;html=1;align=center;verticalAlign=middle;resizable=0;points=[];" vertex="1" connectable="0" parent="fnnSx_R63VMe2gS6l3el-14">
          <mxGeometry x="0.0924" y="2" relative="1" as="geometry">
            <mxPoint y="1" as="offset" />
          </mxGeometry>
        </mxCell>
        <mxCell id="fnnSx_R63VMe2gS6l3el-16" value="is exist&lt;br&gt;otn_alarm&lt;br&gt;(alarmMd5)" style="rhombus;whiteSpace=wrap;html=1;shadow=0;fontFamily=Helvetica;fontSize=12;align=center;strokeWidth=1;spacing=6;spacingTop=-4;" vertex="1" parent="1">
          <mxGeometry x="180" y="430" width="151" height="111" as="geometry" />
        </mxCell>
        <mxCell id="fnnSx_R63VMe2gS6l3el-17" style="edgeStyle=orthogonalEdgeStyle;rounded=0;orthogonalLoop=1;jettySize=auto;html=1;entryX=1;entryY=0.5;entryDx=0;entryDy=0;" edge="1" parent="1" source="fnnSx_R63VMe2gS6l3el-18" target="fnnSx_R63VMe2gS6l3el-34">
          <mxGeometry relative="1" as="geometry" />
        </mxCell>
        <mxCell id="fnnSx_R63VMe2gS6l3el-18" value="update&amp;nbsp; otn_alarm" style="rounded=1;whiteSpace=wrap;html=1;fontSize=12;glass=0;strokeWidth=1;shadow=0;" vertex="1" parent="1">
          <mxGeometry x="192" y="600" width="126" height="40" as="geometry" />
        </mxCell>
        <mxCell id="fnnSx_R63VMe2gS6l3el-19" style="edgeStyle=orthogonalEdgeStyle;rounded=0;orthogonalLoop=1;jettySize=auto;html=1;entryX=1;entryY=0.5;entryDx=0;entryDy=0;" edge="1" parent="1" source="fnnSx_R63VMe2gS6l3el-20" target="fnnSx_R63VMe2gS6l3el-34">
          <mxGeometry relative="1" as="geometry">
            <Array as="points">
              <mxPoint x="730" y="660" />
              <mxPoint x="130" y="660" />
              <mxPoint x="130" y="275" />
            </Array>
          </mxGeometry>
        </mxCell>
        <mxCell id="fnnSx_R63VMe2gS6l3el-20" value="insert&amp;nbsp; &lt;br&gt;otn_alarm" style="rounded=1;whiteSpace=wrap;html=1;fontSize=12;glass=0;strokeWidth=1;shadow=0;" vertex="1" parent="1">
          <mxGeometry x="670" y="340" width="126" height="40" as="geometry" />
        </mxCell>
        <mxCell id="fnnSx_R63VMe2gS6l3el-21" style="edgeStyle=orthogonalEdgeStyle;rounded=0;orthogonalLoop=1;jettySize=auto;html=1;entryX=1;entryY=0.5;entryDx=0;entryDy=0;" edge="1" parent="1">
          <mxGeometry relative="1" as="geometry">
            <mxPoint x="479" y="560" as="sourcePoint" />
            <mxPoint x="64" y="274.5" as="targetPoint" />
            <Array as="points">
              <mxPoint x="479" y="660" />
              <mxPoint x="129" y="660" />
              <mxPoint x="129" y="275" />
            </Array>
          </mxGeometry>
        </mxCell>
        <mxCell id="fnnSx_R63VMe2gS6l3el-22" value="&amp;nbsp;alarm_num +1&lt;br&gt;otn_alarm" style="rounded=1;whiteSpace=wrap;html=1;" vertex="1" parent="1">
          <mxGeometry x="420" y="500" width="120" height="60" as="geometry" />
        </mxCell>
        <mxCell id="fnnSx_R63VMe2gS6l3el-23" value="&lt;h1&gt;ipran 活跃告警入库&lt;/h1&gt;&lt;p&gt;&amp;nbsp; &amp;nbsp; &amp;nbsp; &amp;nbsp;如果子表不存在，子表插入新数据。子表不存在，校验父表是否存在，不存在直接插入新数据，存在告警次数+1；&lt;/p&gt;&lt;p&gt;&amp;nbsp; &amp;nbsp; &amp;nbsp; &amp;nbsp;如果子表存在，更新子表数据，父表更新操作时间。&lt;/p&gt;" style="text;html=1;strokeColor=none;fillColor=none;spacing=5;spacingTop=-20;whiteSpace=wrap;overflow=hidden;rounded=0;" vertex="1" parent="1">
          <mxGeometry x="4" y="-60" width="410" height="120" as="geometry" />
        </mxCell>
        <mxCell id="fnnSx_R63VMe2gS6l3el-59" value="" style="edgeStyle=orthogonalEdgeStyle;rounded=0;orthogonalLoop=1;jettySize=auto;html=1;" edge="1" parent="1" source="fnnSx_R63VMe2gS6l3el-25" target="fnnSx_R63VMe2gS6l3el-58">
          <mxGeometry relative="1" as="geometry" />
        </mxCell>
        <mxCell id="fnnSx_R63VMe2gS6l3el-61" value="" style="edgeStyle=orthogonalEdgeStyle;rounded=0;orthogonalLoop=1;jettySize=auto;html=1;" edge="1" parent="1" source="fnnSx_R63VMe2gS6l3el-25" target="fnnSx_R63VMe2gS6l3el-60">
          <mxGeometry relative="1" as="geometry" />
        </mxCell>
        <mxCell id="fnnSx_R63VMe2gS6l3el-25" value="&lt;pre class=&quot;tw-data-text tw-text-large XcVN5d tw-ta&quot; id=&quot;tw-target-text&quot; dir=&quot;ltr&quot; style=&quot;line-height: 36px ; border: none ; padding: 2px 0.14em 2px 0px ; position: relative ; margin-top: -2px ; margin-bottom: -2px ; resize: none ; font-family: inherit ; overflow: hidden ; width: 270px ; overflow-wrap: break-word ; color: rgb(32 , 33 , 36)&quot;&gt;Synchronize ipran Alarm&lt;/pre&gt;" style="rounded=1;whiteSpace=wrap;html=1;" vertex="1" parent="1">
          <mxGeometry x="-380" y="-70" width="180" height="60" as="geometry" />
        </mxCell>
        <mxCell id="fnnSx_R63VMe2gS6l3el-26" value="" style="edgeStyle=orthogonalEdgeStyle;rounded=0;orthogonalLoop=1;jettySize=auto;html=1;" edge="1" parent="1" target="fnnSx_R63VMe2gS6l3el-31">
          <mxGeometry relative="1" as="geometry">
            <mxPoint x="-200" y="100" as="sourcePoint" />
          </mxGeometry>
        </mxCell>
        <mxCell id="fnnSx_R63VMe2gS6l3el-27" value="" style="edgeStyle=orthogonalEdgeStyle;rounded=0;orthogonalLoop=1;jettySize=auto;html=1;" edge="1" parent="1" target="fnnSx_R63VMe2gS6l3el-34">
          <mxGeometry relative="1" as="geometry">
            <mxPoint x="-200" y="100" as="sourcePoint" />
          </mxGeometry>
        </mxCell>
        <mxCell id="fnnSx_R63VMe2gS6l3el-28" value="No" style="edgeLabel;html=1;align=center;verticalAlign=middle;resizable=0;points=[];" vertex="1" connectable="0" parent="fnnSx_R63VMe2gS6l3el-27">
          <mxGeometry x="0.6494" y="2" relative="1" as="geometry">
            <mxPoint as="offset" />
          </mxGeometry>
        </mxCell>
        <mxCell id="fnnSx_R63VMe2gS6l3el-30" value="Yes" style="edgeStyle=orthogonalEdgeStyle;rounded=0;orthogonalLoop=1;jettySize=auto;html=1;" edge="1" parent="1" source="fnnSx_R63VMe2gS6l3el-31" target="fnnSx_R63VMe2gS6l3el-2">
          <mxGeometry relative="1" as="geometry" />
        </mxCell>
        <mxCell id="fnnSx_R63VMe2gS6l3el-31" value="is exist&lt;br&gt;&amp;nbsp;New Alam List" style="rhombus;whiteSpace=wrap;html=1;rounded=1;" vertex="1" parent="1">
          <mxGeometry x="-110" y="35" width="170" height="130" as="geometry" />
        </mxCell>
        <mxCell id="fnnSx_R63VMe2gS6l3el-32" value="" style="edgeStyle=orthogonalEdgeStyle;rounded=0;orthogonalLoop=1;jettySize=auto;html=1;" edge="1" parent="1" source="fnnSx_R63VMe2gS6l3el-34" target="fnnSx_R63VMe2gS6l3el-36">
          <mxGeometry relative="1" as="geometry" />
        </mxCell>
        <mxCell id="fnnSx_R63VMe2gS6l3el-33" value="" style="edgeStyle=orthogonalEdgeStyle;rounded=0;orthogonalLoop=1;jettySize=auto;html=1;" edge="1" parent="1" source="fnnSx_R63VMe2gS6l3el-34" target="fnnSx_R63VMe2gS6l3el-49">
          <mxGeometry relative="1" as="geometry" />
        </mxCell>
        <mxCell id="fnnSx_R63VMe2gS6l3el-34" value="&lt;pre class=&quot;tw-data-text tw-text-large XcVN5d tw-ta&quot; id=&quot;tw-target-text&quot; dir=&quot;ltr&quot; style=&quot;line-height: 36px ; border: none ; padding: 2px 0.14em 2px 0px ; position: relative ; margin-top: -2px ; margin-bottom: -2px ; resize: none ; font-family: inherit ; overflow: hidden ; width: 270px ; overflow-wrap: break-word ; color: rgb(32 , 33 , 36)&quot;&gt;update clear Alarm &lt;/pre&gt;" style="rounded=1;whiteSpace=wrap;html=1;align=center;" vertex="1" parent="1">
          <mxGeometry x="-115" y="244.5" width="180" height="60" as="geometry" />
        </mxCell>
        <mxCell id="fnnSx_R63VMe2gS6l3el-35" value="" style="edgeStyle=orthogonalEdgeStyle;rounded=0;orthogonalLoop=1;jettySize=auto;html=1;" edge="1" parent="1" source="fnnSx_R63VMe2gS6l3el-36" target="fnnSx_R63VMe2gS6l3el-38">
          <mxGeometry relative="1" as="geometry" />
        </mxCell>
        <mxCell id="fnnSx_R63VMe2gS6l3el-36" value="&lt;pre class=&quot;tw-data-text tw-text-large XcVN5d tw-ta&quot; id=&quot;tw-target-text&quot; dir=&quot;ltr&quot; style=&quot;line-height: 36px ; border: none ; padding: 2px 0.14em 2px 0px ; position: relative ; margin-top: -2px ; margin-bottom: -2px ; resize: none ; font-family: inherit ; overflow: hidden ; width: 270px ; overflow-wrap: break-word ; color: rgb(32 , 33 , 36)&quot;&gt;update otn_alram_sublist&lt;/pre&gt;&lt;pre class=&quot;tw-data-text tw-text-large XcVN5d tw-ta&quot; id=&quot;tw-target-text&quot; dir=&quot;ltr&quot; style=&quot;line-height: 36px ; border: none ; padding: 2px 0.14em 2px 0px ; position: relative ; margin-top: -2px ; margin-bottom: -2px ; resize: none ; font-family: inherit ; overflow: hidden ; width: 270px ; overflow-wrap: break-word ; color: rgb(32 , 33 , 36)&quot;&gt; isclear&lt;/pre&gt;" style="rounded=1;whiteSpace=wrap;html=1;align=center;" vertex="1" parent="1">
          <mxGeometry x="-115" y="384.5" width="180" height="60" as="geometry" />
        </mxCell>
        <mxCell id="fnnSx_R63VMe2gS6l3el-37" value="" style="edgeStyle=orthogonalEdgeStyle;rounded=0;orthogonalLoop=1;jettySize=auto;html=1;" edge="1" parent="1" source="fnnSx_R63VMe2gS6l3el-38" target="fnnSx_R63VMe2gS6l3el-43">
          <mxGeometry relative="1" as="geometry" />
        </mxCell>
        <mxCell id="fnnSx_R63VMe2gS6l3el-38" value="&lt;pre class=&quot;tw-data-text tw-text-large XcVN5d tw-ta&quot; id=&quot;tw-target-text&quot; dir=&quot;ltr&quot; style=&quot;line-height: 36px ; border: none ; padding: 2px 0.14em 2px 0px ; position: relative ; margin-top: -2px ; margin-bottom: -2px ; resize: none ; font-family: inherit ; overflow: hidden ; width: 270px ; overflow-wrap: break-word ; color: rgb(32 , 33 , 36)&quot;&gt;update otn_alarm &lt;/pre&gt;" style="rounded=1;whiteSpace=wrap;html=1;align=center;" vertex="1" parent="1">
          <mxGeometry x="-115" y="524.5" width="180" height="60" as="geometry" />
        </mxCell>
        <mxCell id="fnnSx_R63VMe2gS6l3el-39" value="" style="edgeStyle=orthogonalEdgeStyle;rounded=0;orthogonalLoop=1;jettySize=auto;html=1;" edge="1" parent="1" source="fnnSx_R63VMe2gS6l3el-43" target="fnnSx_R63VMe2gS6l3el-45">
          <mxGeometry relative="1" as="geometry" />
        </mxCell>
        <mxCell id="fnnSx_R63VMe2gS6l3el-40" value="Yes" style="edgeLabel;html=1;align=center;verticalAlign=middle;resizable=0;points=[];" vertex="1" connectable="0" parent="fnnSx_R63VMe2gS6l3el-39">
          <mxGeometry x="-0.1878" y="-1" relative="1" as="geometry">
            <mxPoint as="offset" />
          </mxGeometry>
        </mxCell>
        <mxCell id="fnnSx_R63VMe2gS6l3el-41" value="" style="edgeStyle=orthogonalEdgeStyle;rounded=0;orthogonalLoop=1;jettySize=auto;html=1;" edge="1" parent="1" source="fnnSx_R63VMe2gS6l3el-43" target="fnnSx_R63VMe2gS6l3el-47">
          <mxGeometry relative="1" as="geometry" />
        </mxCell>
        <mxCell id="fnnSx_R63VMe2gS6l3el-42" value="No" style="edgeLabel;html=1;align=center;verticalAlign=middle;resizable=0;points=[];" vertex="1" connectable="0" parent="fnnSx_R63VMe2gS6l3el-41">
          <mxGeometry x="-0.3193" y="1" relative="1" as="geometry">
            <mxPoint as="offset" />
          </mxGeometry>
        </mxCell>
        <mxCell id="fnnSx_R63VMe2gS6l3el-43" value="is alarmNum&lt;br&gt;0" style="rhombus;whiteSpace=wrap;html=1;rounded=1;" vertex="1" parent="1">
          <mxGeometry x="-92.5" y="650" width="135" height="114.5" as="geometry" />
        </mxCell>
        <mxCell id="fnnSx_R63VMe2gS6l3el-44" style="edgeStyle=orthogonalEdgeStyle;rounded=0;orthogonalLoop=1;jettySize=auto;html=1;entryX=1;entryY=0.5;entryDx=0;entryDy=0;exitX=1;exitY=0.5;exitDx=0;exitDy=0;" edge="1" parent="1" source="fnnSx_R63VMe2gS6l3el-45" target="fnnSx_R63VMe2gS6l3el-34">
          <mxGeometry relative="1" as="geometry">
            <mxPoint x="280" y="660" as="sourcePoint" />
            <Array as="points">
              <mxPoint x="280" y="707" />
              <mxPoint x="280" y="660" />
              <mxPoint x="130" y="660" />
              <mxPoint x="130" y="275" />
            </Array>
          </mxGeometry>
        </mxCell>
        <mxCell id="fnnSx_R63VMe2gS6l3el-45" value="update otn_alarm isclear" style="whiteSpace=wrap;html=1;rounded=1;" vertex="1" parent="1">
          <mxGeometry x="130" y="677.25" width="120" height="60" as="geometry" />
        </mxCell>
        <mxCell id="fnnSx_R63VMe2gS6l3el-46" style="edgeStyle=orthogonalEdgeStyle;rounded=0;orthogonalLoop=1;jettySize=auto;html=1;entryX=1;entryY=0.5;entryDx=0;entryDy=0;" edge="1" parent="1" source="fnnSx_R63VMe2gS6l3el-47" target="fnnSx_R63VMe2gS6l3el-34">
          <mxGeometry relative="1" as="geometry">
            <Array as="points">
              <mxPoint x="280" y="902" />
              <mxPoint x="280" y="660" />
              <mxPoint x="130" y="660" />
              <mxPoint x="130" y="275" />
            </Array>
          </mxGeometry>
        </mxCell>
        <mxCell id="fnnSx_R63VMe2gS6l3el-47" value="otn_alarm &lt;br&gt;alarmNum -1" style="whiteSpace=wrap;html=1;rounded=1;" vertex="1" parent="1">
          <mxGeometry x="-85" y="871.75" width="120" height="60" as="geometry" />
        </mxCell>
        <mxCell id="fnnSx_R63VMe2gS6l3el-48" style="edgeStyle=orthogonalEdgeStyle;rounded=0;orthogonalLoop=1;jettySize=auto;html=1;exitX=0;exitY=0.5;exitDx=0;exitDy=0;" edge="1" parent="1" source="fnnSx_R63VMe2gS6l3el-49" target="fnnSx_R63VMe2gS6l3el-53">
          <mxGeometry relative="1" as="geometry" />
        </mxCell>
        <mxCell id="fnnSx_R63VMe2gS6l3el-49" value="&lt;pre class=&quot;tw-data-text tw-text-large XcVN5d tw-ta&quot; id=&quot;tw-target-text&quot; dir=&quot;ltr&quot; style=&quot;line-height: 36px ; border: none ; padding: 2px 0.14em 2px 0px ; position: relative ; margin-top: -2px ; margin-bottom: -2px ; resize: none ; font-family: inherit ; overflow: hidden ; width: 270px ; overflow-wrap: break-word ; color: rgb(32 , 33 , 36)&quot;&gt;&lt;pre class=&quot;tw-data-text tw-text-large XcVN5d tw-ta&quot; id=&quot;tw-target-text&quot; dir=&quot;ltr&quot; style=&quot;line-height: 36px ; border: none ; padding: 2px 0.14em 2px 0px ; position: relative ; margin-top: -2px ; margin-bottom: -2px ; resize: none ; font-family: inherit ; overflow: hidden ; width: 270px ; overflow-wrap: break-word&quot;&gt;Check Otn Alarm Difference&lt;/pre&gt;&lt;/pre&gt;" style="rounded=1;whiteSpace=wrap;html=1;align=center;" vertex="1" parent="1">
          <mxGeometry x="-375" y="244.5" width="180" height="60" as="geometry" />
        </mxCell>
        <mxCell id="fnnSx_R63VMe2gS6l3el-50" value="&lt;h1&gt;ipran 告警差异比对&lt;/h1&gt;&lt;p&gt;&lt;br&gt;&lt;/p&gt;" style="text;html=1;strokeColor=none;fillColor=none;spacing=5;spacingTop=-20;whiteSpace=wrap;overflow=hidden;rounded=0;" vertex="1" parent="1">
          <mxGeometry x="-390" y="196.5" width="240" height="43.5" as="geometry" />
        </mxCell>
        <mxCell id="fnnSx_R63VMe2gS6l3el-51" value="" style="edgeStyle=orthogonalEdgeStyle;rounded=0;orthogonalLoop=1;jettySize=auto;html=1;entryX=0.528;entryY=0;entryDx=0;entryDy=0;entryPerimeter=0;" edge="1" parent="1" source="fnnSx_R63VMe2gS6l3el-53" target="fnnSx_R63VMe2gS6l3el-55">
          <mxGeometry relative="1" as="geometry">
            <mxPoint x="-285" y="598.25" as="targetPoint" />
          </mxGeometry>
        </mxCell>
        <mxCell id="fnnSx_R63VMe2gS6l3el-52" value="yes/no" style="edgeLabel;html=1;align=center;verticalAlign=middle;resizable=0;points=[];" vertex="1" connectable="0" parent="fnnSx_R63VMe2gS6l3el-51">
          <mxGeometry x="-0.1134" y="4" relative="1" as="geometry">
            <mxPoint as="offset" />
          </mxGeometry>
        </mxCell>
        <mxCell id="fnnSx_R63VMe2gS6l3el-53" value="is&amp;nbsp;&lt;span style=&quot;color: rgb(32 , 33 , 36) ; font-family: inherit&quot;&gt;Alarm Difference&lt;/span&gt;" style="rhombus;whiteSpace=wrap;html=1;" vertex="1" parent="1">
          <mxGeometry x="-670" y="227" width="180" height="96.5" as="geometry" />
        </mxCell>
        <mxCell id="fnnSx_R63VMe2gS6l3el-54" style="edgeStyle=orthogonalEdgeStyle;rounded=0;orthogonalLoop=1;jettySize=auto;html=1;entryX=0;entryY=0.5;entryDx=0;entryDy=0;" edge="1" parent="1" source="fnnSx_R63VMe2gS6l3el-55" target="fnnSx_R63VMe2gS6l3el-57">
          <mxGeometry relative="1" as="geometry" />
        </mxCell>
        <mxCell id="fnnSx_R63VMe2gS6l3el-55" value="&lt;pre class=&quot;tw-data-text tw-text-large XcVN5d tw-ta&quot; id=&quot;tw-target-text&quot; dir=&quot;ltr&quot; style=&quot;line-height: 36px ; border: none ; padding: 2px 0.14em 2px 0px ; position: relative ; margin-top: -2px ; margin-bottom: -2px ; resize: none ; font-family: inherit ; overflow: hidden ; width: 270px ; overflow-wrap: break-word ; color: rgb(32 , 33 , 36)&quot;&gt;update otn_ne_info&lt;/pre&gt;" style="rounded=1;whiteSpace=wrap;html=1;align=center;" vertex="1" parent="1">
          <mxGeometry x="-673" y="500" width="176" height="60" as="geometry" />
        </mxCell>
        <mxCell id="fnnSx_R63VMe2gS6l3el-56" value="&lt;h1&gt;ipran 告警 Csv 历史&lt;/h1&gt;&lt;p&gt;&lt;br&gt;&lt;/p&gt;" style="text;html=1;strokeColor=none;fillColor=none;spacing=5;spacingTop=-20;whiteSpace=wrap;overflow=hidden;rounded=0;" vertex="1" parent="1">
          <mxGeometry x="-420" y="430" width="240" height="43.5" as="geometry" />
        </mxCell>
        <mxCell id="fnnSx_R63VMe2gS6l3el-57" value="save csv&lt;br&gt;(只保存差异数据)" style="rounded=1;whiteSpace=wrap;html=1;" vertex="1" parent="1">
          <mxGeometry x="-372.5" y="500" width="182.5" height="60" as="geometry" />
        </mxCell>
        <mxCell id="fnnSx_R63VMe2gS6l3el-58" value="&lt;font style=&quot;font-size: 15px&quot;&gt;System Auto&amp;nbsp;&lt;span style=&quot;color: rgb(32 , 33 , 36) ; font-family: inherit ; text-align: left&quot;&gt;&lt;font style=&quot;font-size: 15px&quot;&gt;Inspection&lt;/font&gt;&lt;/span&gt;&lt;/font&gt;" style="rounded=1;whiteSpace=wrap;html=1;" vertex="1" parent="1">
          <mxGeometry x="-380" y="-210" width="180" height="60" as="geometry" />
        </mxCell>
        <mxCell id="fnnSx_R63VMe2gS6l3el-60" value="&lt;pre class=&quot;tw-data-text tw-text-large XcVN5d tw-ta&quot; id=&quot;tw-target-text&quot; dir=&quot;ltr&quot; style=&quot;line-height: 36px ; border: none ; padding: 2px 0.14em 2px 0px ; position: relative ; margin-top: -2px ; margin-bottom: -2px ; resize: none ; font-family: inherit ; overflow: hidden ; width: 270px ; overflow-wrap: break-word ; color: rgb(32 , 33 , 36)&quot;&gt;&lt;pre class=&quot;tw-data-text tw-text-large XcVN5d tw-ta&quot; id=&quot;tw-target-text&quot; dir=&quot;ltr&quot; style=&quot;line-height: 36px ; border: none ; padding: 2px 0.14em 2px 0px ; position: relative ; margin-top: -2px ; margin-bottom: -2px ; resize: none ; font-family: inherit ; overflow: hidden ; width: 270px ; overflow-wrap: break-word&quot;&gt;根据uid，过滤出对应告警数据&lt;/pre&gt;&lt;/pre&gt;" style="rounded=1;whiteSpace=wrap;html=1;" vertex="1" parent="1">
          <mxGeometry x="-380" y="70" width="180" height="60" as="geometry" />
        </mxCell>
      </root>
    </mxGraphModel>
  </diagram>
</mxfile>
